HIERARCHY
ROOT Hips
{
  OFFSET 5.84602e-005 68.8428 3.50346
  CHANNELS 6 Xposition Yposition Zposition Zrotation Xrotation Yrotation
  JOINT Spine
  {
    OFFSET 0 8.597 -4.6522
    CHANNELS 3 Zrotation Xrotation Yrotation
    JOINT Spine1
    {
      OFFSET 0 7.8454 0.4098
      CHANNELS 3 Zrotation Xrotation Yrotation
      JOINT Spine2
      {
        OFFSET 0 9.7078 -2.1609
        CHANNELS 3 Zrotation Xrotation Yrotation
        JOINT Neck
        {
          OFFSET 0 21.8761 -0.4549
          CHANNELS 3 Zrotation Xrotation Yrotation
          JOINT Head
          {
            OFFSET 0 12.3537 3.3602
            CHANNELS 3 Zrotation Xrotation Yrotation
            End Site
            {
              OFFSET 0.0001 18.9506 0.5657
            }
          }
        }
        JOINT LeftShoulder
        {
          OFFSET 2.2086 21.1115 7.2329
          CHANNELS 3 Zrotation Xrotation Yrotation
          JOINT LeftArm
          {
            OFFSET 13.1193 3.0282 -4.8998
            CHANNELS 3 Zrotation Xrotation Yrotation
            JOINT LeftForeArm
            {
              OFFSET 27.4081 -0.0973053 -0.2375
              CHANNELS 3 Zrotation Xrotation Yrotation
              JOINT LeftHand
              {
                OFFSET 22.8641 0.0662994 -0.1369
                CHANNELS 3 Zrotation Xrotation Yrotation
                JOINT LeftHandIndex1
                {
                  OFFSET 8.8614 0.775009 2.4612
                  CHANNELS 3 Zrotation Xrotation Yrotation
                  JOINT LeftHandIndex2
                  {
                    OFFSET 3.3146 -0.808304 0.5841
                    CHANNELS 3 Zrotation Xrotation Yrotation
                    JOINT LeftHandIndex3
                    {
                      OFFSET 2.2628 -0.552002 0.3989
                      CHANNELS 3 Zrotation Xrotation Yrotation
                      End Site
                      {
                        OFFSET 1.6102 -0.4807 0.2612
                      }
                    }
                  }
                }
                JOINT LeftHandMiddle1
                {
                  OFFSET 8.9937 0.895004 0.2143
                  CHANNELS 3 Zrotation Xrotation Yrotation
                  JOINT LeftHandMiddle2
                  {
                    OFFSET 4.0984 0.0113983 -0.0242
                    CHANNELS 3 Zrotation Xrotation Yrotation
                    JOINT LeftHandMiddle3
                    {
                      OFFSET 2.2716 0.00689697 -0.0138001
                      CHANNELS 3 Zrotation Xrotation Yrotation
                      End Site
                      {
                        OFFSET 2.0404 -0.1441 0.0027
                      }
                    }
                  }
                }
                JOINT LeftHandRing1
                {
                  OFFSET 8.5234 0.597198 -2.0164
                  CHANNELS 3 Zrotation Xrotation Yrotation
                  JOINT LeftHandRing2
                  {
                    OFFSET 3.7188 -0.188293 -0.2328
                    CHANNELS 3 Zrotation Xrotation Yrotation
                    JOINT LeftHandRing3
                    {
                      OFFSET 2.1191 -0.106598 -0.1332
                      CHANNELS 3 Zrotation Xrotation Yrotation
                      End Site
                      {
                        OFFSET 1.8737 -0.2304 -0.0886
                      }
                    }
                  }
                }
                JOINT LeftHandPinky1
                {
                  OFFSET 7.9094 -0.601089 -3.4825
                  CHANNELS 3 Zrotation Xrotation Yrotation
                  JOINT LeftHandPinky2
                  {
                    OFFSET 2.2874 -0.477005 -0.6314
                    CHANNELS 3 Zrotation Xrotation Yrotation
                    JOINT LeftHandPinky3
                    {
                      OFFSET 1.6774 -0.349396 -0.4633
                      CHANNELS 3 Zrotation Xrotation Yrotation
                      End Site
                      {
                        OFFSET 1.4888 -0.4091 -0.3416
                      }
                    }
                  }
                }
                JOINT LeftHandThumb1
                {
                  OFFSET 1.833 -1.3875 1.3896
                  CHANNELS 3 Zrotation Xrotation Yrotation
                  JOINT LeftHandThumb2
                  {
                    OFFSET 3.4129 -1.121 2.5732
                    CHANNELS 3 Zrotation Xrotation Yrotation
                    JOINT LeftHandThumb3
                    {
                      OFFSET 2.2474 -0.804199 1.6192
                      CHANNELS 3 Zrotation Xrotation Yrotation
                      End Site
                      {
                        OFFSET 1.6527 -0.5689 1.1317
                      }
                    }
                  }
                }
              }
            }
          }
        }
        JOINT RightShoulder
        {
          OFFSET -2.2086 21.1115 7.2329
          CHANNELS 3 Zrotation Xrotation Yrotation
          JOINT RightArm
          {
            OFFSET -13.1216 3.0287 -4.9007
            CHANNELS 3 Zrotation Xrotation Yrotation
            JOINT RightForeArm
            {
              OFFSET -27.4081 -0.0973053 -0.2375
              CHANNELS 3 Zrotation Xrotation Yrotation
              JOINT RightHand
              {
                OFFSET -22.8641 0.0664063 -0.1369
                CHANNELS 3 Zrotation Xrotation Yrotation
                JOINT RightHandIndex1
                {
                  OFFSET -8.8614 0.774994 2.4612
                  CHANNELS 3 Zrotation Xrotation Yrotation
                  JOINT RightHandIndex2
                  {
                    OFFSET -3.3146 -0.808304 0.5841
                    CHANNELS 3 Zrotation Xrotation Yrotation
                    JOINT RightHandIndex3
                    {
                      OFFSET -2.2628 -0.552002 0.3989
                      CHANNELS 3 Zrotation Xrotation Yrotation
                      End Site
                      {
                        OFFSET -1.6102 -0.4807 0.2612
                      }
                    }
                  }
                }
                JOINT RightHandMiddle1
                {
                  OFFSET -8.9937 0.894989 0.2143
                  CHANNELS 3 Zrotation Xrotation Yrotation
                  JOINT RightHandMiddle2
                  {
                    OFFSET -4.0984 0.0113983 -0.0242
                    CHANNELS 3 Zrotation Xrotation Yrotation
                    JOINT RightHandMiddle3
                    {
                      OFFSET -2.2716 0.00691223 -0.0138001
                      CHANNELS 3 Zrotation Xrotation Yrotation
                      End Site
                      {
                        OFFSET -2.0404 -0.1441 0.0027
                      }
                    }
                  }
                }
                JOINT RightHandRing1
                {
                  OFFSET -8.5234 0.597198 -2.0164
                  CHANNELS 3 Zrotation Xrotation Yrotation
                  JOINT RightHandRing2
                  {
                    OFFSET -3.7188 -0.188309 -0.2328
                    CHANNELS 3 Zrotation Xrotation Yrotation
                    JOINT RightHandRing3
                    {
                      OFFSET -2.1191 -0.106598 -0.1332
                      CHANNELS 3 Zrotation Xrotation Yrotation
                      End Site
                      {
                        OFFSET -1.8737 -0.2304 -0.0886
                      }
                    }
                  }
                }
                JOINT RightHandPinky1
                {
                  OFFSET -7.9094 -0.601105 -3.4825
                  CHANNELS 3 Zrotation Xrotation Yrotation
                  JOINT RightHandPinky2
                  {
                    OFFSET -2.2874 -0.477005 -0.6314
                    CHANNELS 3 Zrotation Xrotation Yrotation
                    JOINT RightHandPinky3
                    {
                      OFFSET -1.6774 -0.349396 -0.4633
                      CHANNELS 3 Zrotation Xrotation Yrotation
                      End Site
                      {
                        OFFSET -1.4888 -0.4091 -0.3416
                      }
                    }
                  }
                }
                JOINT RightHandThumb1
                {
                  OFFSET -1.833 -1.38751 1.3896
                  CHANNELS 3 Zrotation Xrotation Yrotation
                  JOINT RightHandThumb2
                  {
                    OFFSET -3.41299 -1.12099 2.5732
                    CHANNELS 3 Zrotation Xrotation Yrotation
                    JOINT RightHandThumb3
                    {
                      OFFSET -2.24741 -0.804108 1.6192
                      CHANNELS 3 Zrotation Xrotation Yrotation
                      End Site
                      {
                        OFFSET -1.6527 -0.5689 1.1317
                      }
                    }
                  }
                }
              }
            }
          }
        }
      }
    }
  }
  JOINT RightUpLeg
  {
    OFFSET -9.1966 3.8861 -0.7581
    CHANNELS 3 Zrotation Xrotation Yrotation
    JOINT RightLeg
    {
      OFFSET -0.7359 -41.0265 0
      CHANNELS 3 Zrotation Xrotation Yrotation
      JOINT RightFoot
      {
        OFFSET 0 -40.2855 0
        CHANNELS 3 Zrotation Xrotation Yrotation
        JOINT RightToeBase
        {
          OFFSET 0 -5.6122 11.7359
          CHANNELS 3 Zrotation Xrotation Yrotation
          End Site
          {
            OFFSET 0 0 7.8731
          }
        }
      }
    }
  }
  JOINT LeftUpLeg
  {
    OFFSET 9.1965 3.8864 -0.7581
    CHANNELS 3 Zrotation Xrotation Yrotation
    JOINT LeftLeg
    {
      OFFSET 0.7359 -41.0268 0
      CHANNELS 3 Zrotation Xrotation Yrotation
      JOINT LeftFoot
      {
        OFFSET 0 -40.2855 0
        CHANNELS 3 Zrotation Xrotation Yrotation
        JOINT LeftToeBase
        {
          OFFSET 0 -5.6122 11.7359
          CHANNELS 3 Zrotation Xrotation Yrotation
          End Site
          {
            OFFSET 0 0 7.8731
          }
        }
      }
    }
  }
}
MOTION
Frames:	4
Frame Time:	0.0333333
5.84602e-005 68.8428 3.50346 0 0 -0 0 0 -0 0 0 -0 0 0 -0 0 0 -0 0 0 -0 0 0 -0 0 0 -0 0 0 -0 0 0 -0 0 0 -0 0 0 -0 0 0 -0 0 0 -0 -0.0146107 -8.87603e-005 -2.63497e-007 2.99804e-018 -2.42657e-020 -1.42182e-022 0 0 -0 -0.0187562 -0.001176 5.858e-005 5.06224e-018 3.88251e-019 1.21329e-020 0 0 -0 -0.012269 -0.00324817 0.000675346 -1.74678e-018 3.88251e-019 -0 0 0 -0 0 0 -0 0 0 -0 0 0 -0 0 0 -0 0 0 -0 0 0 -0 0 0 -0 0 0 -0 0 0 -0 0 0 -0 0.0149955 -9.10982e-005 2.64101e-007 -9.69331e-018 1.21329e-020 -4.7394e-023 0 0 -0 0.0189956 -0.00119102 -5.96516e-005 -5.41541e-019 0 2.42657e-020 0 0 -0 0.0122698 -0.00324857 -0.000673756 -2.00796e-019 0 -1.94126e-019 0 0 -0 0 0 -0 0 0 -0 3.39842 1.33031 -0.0637918 -5.65207e-008 0.834868 -0.000436188 -3.39935 -2.16518 -0.0642563 -8.89002e-024 -1.18485e-023 -1.48106e-024 -3.39844 1.35642 0.0640283 -3.18788e-007 0.782166 -0.000588827 3.39931 -2.13858 0.0634662 1.1399e-023 0 -0 
9.42781 26.5878 22.0707 -2.22084 0.00441499 -116.345 -1.16725 8.07892 1.35963 -2.56884 16.1255 2.93139 -2.56884 16.1255 2.9314 -0.00443942 -28.1707 -0.00128515 -0.0123464 -22.9902 -0.00520933 -16.1201 -9.40057 -10.4202 -27.1765 3.01629 -9.16023 19.7951 -5.04764 -18.1866 -11.4149 1.22233 -4.67485 -6.36111e-015 3.18055e-015 1.27222e-014 -2.55884e-007 -7.39007e-007 -3.32648e-007 3.53113e-031 -3.18055e-015 6.36111e-015 -6.36111e-015 3.18055e-015 1.27222e-014 -0.0145555 -8.79751e-005 6.21353e-007 4.77083e-015 3.18055e-015 3.18055e-015 -6.36111e-015 3.18055e-015 1.27222e-014 -0.0187094 -0.00117267 5.87431e-005 1.59028e-015 -3.18055e-015 -6.36111e-015 -6.36111e-015 3.18055e-015 1.27222e-014 -0.0122937 -0.00325477 0.000678932 -2.23226e-007 -3.92746e-007 9.02807e-007 -6.36111e-015 3.18055e-015 1.27222e-014 -2.55884e-007 -7.39007e-007 -3.32648e-007 3.53113e-031 -3.18055e-015 6.36111e-015 17.7077 -1.52229 19.6087 25.2818 10.243 23.4975 -13.3308 -3.03958 20.1972 -24.4171 0.00125498 -0.012158 -2.64834e-031 -1.59028e-015 -9.54166e-015 3.18055e-015 -4.77083e-015 -6.36111e-015 6.36111e-015 -3.18055e-015 -6.36111e-015 -2.64834e-031 -1.59028e-015 -9.54166e-015 0.0150111 -9.05787e-005 -1.39452e-007 -2.39362e-007 -4.26187e-007 -1.61048e-007 -2.64834e-031 -1.59028e-015 -9.54166e-015 0.0189904 -0.00118743 -6.04345e-005 -2.38817e-007 -4.26343e-007 -1.61039e-007 -2.64834e-031 -1.59028e-015 -9.54166e-015 0.0123068 -0.0032591 -0.000683892 6.17947e-031 1.11319e-014 -3.18055e-015 -2.64834e-031 -1.59028e-015 -9.54166e-015 3.18055e-015 -4.77083e-015 -6.36111e-015 6.36111e-015 -3.18055e-015 -6.36111e-015 -3.70283 -44.8857 -38.2372 -158.216 55.4549 178.93 -5.13122 23.5738 9.14745 -9.54166e-015 -3.18055e-015 -3.18055e-015 3.65827 -44.8922 38.2532 158.246 55.4181 -178.927 5.16266 23.5492 -9.12802 4.60543e-007 -1.65521e-006 -1.47874e-006 
17.6158 7.37049 30.5356 -3.21012 0.01414 -168.7 -2.4868 11.1643 1.84387 -5.50725 22.2282 4.3167 -5.50724 22.2282 4.3167 0.01589 -40.7424 0.00526964 0.0470859 -33.2112 0.0201066 -24.7241 -13.5146 -15.3441 -38.7896 4.29932 -13.1899 27.4893 -6.82093 -26.299 -16.4866 1.76586 -6.78023 -5.51578e-008 3.49968e-007 2.37938e-007 1.10316e-007 -6.99936e-007 -4.75877e-007 -5.51578e-008 3.49968e-007 2.37938e-007 -5.51578e-008 3.49968e-007 2.37938e-007 -0.0145932 -8.88468e-005 -1.99628e-007 -5.51564e-008 3.49938e-007 2.37983e-007 -5.51578e-008 3.49968e-007 2.37938e-007 -0.0187714 -0.00117861 5.94494e-005 -5.51536e-008 3.49929e-007 2.37996e-007 -5.51578e-008 3.49968e-007 2.37938e-007 -0.0122874 -0.00325363 0.000677238 -5.51479e-008 3.49943e-007 2.37977e-007 -5.51578e-008 3.49968e-007 2.37938e-007 1.10316e-007 -6.99936e-007 -4.75877e-007 -5.51578e-008 3.49968e-007 2.37938e-007 26.0085 -1.93563 28.3726 33.7106 13.4266 34.5978 -18.5597 -4.07468 29.3471 -35.5405 -0.00434429 0.0425894 5.32632e-007 5.98965e-007 -2.93833e-007 1.99737e-007 2.24612e-007 -1.10187e-007 3.99474e-007 4.49223e-007 -2.20374e-007 5.32632e-007 5.98965e-007 -2.93833e-007 0.0149869 -8.8101e-005 2.4867e-006 3.99473e-007 4.49195e-007 -2.20433e-007 5.32632e-007 5.98965e-007 -2.93833e-007 0.0190208 -0.00119299 -5.57423e-005 3.9947e-007 4.49187e-007 -2.20453e-007 5.32632e-007 5.98965e-007 -2.93833e-007 0.0122571 -0.00324786 -0.000684928 3.99464e-007 4.49202e-007 -2.20434e-007 5.32632e-007 5.98965e-007 -2.93833e-007 1.99737e-007 2.24612e-007 -1.10187e-007 3.99474e-007 4.49223e-007 -2.20374e-007 -32.4616 -55.271 -62.3922 -151.282 5.48725 -177.388 -9.1842 36.29 20.5056 -2.38018e-006 3.42346e-006 2.37052e-006 32.5319 -55.2145 62.4869 151.436 5.41593 177.41 9.42848 36.2602 -20.5288 -1.59028e-015 6.36111e-015 -4.77083e-015 
15.5782 11.6524 28.227 -2.99133 0.0123663 -157.066 -2.16001 10.5158 1.75324 -4.77596 20.9504 4.0201 -4.77597 20.9503 4.02012 0.0606603 -37.7159 0.0197645 0.177638 -30.663 0.0753407 -23.2195 -12.9222 -14.2603 -35.5495 3.99149 -12.0435 25.3951 -6.27132 -24.1082 -15.363 1.64562 -6.31223 1.35597e-006 8.44292e-009 1.77162e-007 -2.02512e-015 3.97569e-016 -0 -1.35597e-006 -8.44292e-009 -1.77162e-007 1.35597e-006 8.44292e-009 1.77162e-007 -0.0146456 -8.87039e-005 -3.81559e-007 -1.35791e-006 -8.43202e-009 -1.77163e-007 1.35597e-006 8.44292e-009 1.77162e-007 -0.0188146 -0.00117949 5.89326e-005 3.2551e-015 1.98785e-016 1.59028e-015 1.35597e-006 8.44292e-009 1.77162e-007 -0.0123728 -0.0032755 0.000681535 6.89534e-015 -1.98785e-016 -0 1.35597e-006 8.44292e-009 1.77162e-007 -2.02512e-015 3.97569e-016 -0 -1.35597e-006 -8.44292e-009 -1.77162e-007 24.1686 -1.57043 26.2708 31.3631 12.8461 32.1677 -17.2223 -3.82167 27.3603 -33.3701 -0.0169403 0.164235 -3.74276e-007 -8.04182e-007 -9.07342e-008 -1.44831e-031 -3.47873e-015 -2.38542e-015 -4.93116e-032 -1.2921e-015 -2.18663e-015 -3.74276e-007 -8.04182e-007 -9.07342e-008 0.0149966 -8.91269e-005 7.85015e-007 6.36111e-015 3.37934e-015 -3.77691e-015 -3.74276e-007 -8.04182e-007 -9.07342e-008 0.0189493 -0.00119075 -6.71495e-005 3.18055e-015 1.75924e-014 -1.98785e-016 -3.74276e-007 -8.04182e-007 -9.07342e-008 0.0122955 -0.00325558 -0.000679524 -9.54166e-015 -3.18055e-015 3.97569e-016 -3.74276e-007 -8.04182e-007 -9.07342e-008 -1.44831e-031 -3.47873e-015 -2.38542e-015 -4.93116e-032 -1.2921e-015 -2.18663e-015 -27.2436 -53.645 -60.3275 -153.476 15.307 -178.56 -8.37707 34.4648 16.5984 -2.63477e-006 -3.30962e-006 9.2648e-007 27.1677 -53.6145 60.4078 153.624 15.2234 178.724 8.60836 34.3999 -16.6688 -3.18055e-015 -4.77083e-015 -1.59028e-015 
